<?xml version="1.0" encoding="UTF-8" standalone="no"?>
<!-- Created with Inkscape (http://www.inkscape.org/) -->

<svg
   xmlns:svg="http://www.w3.org/2000/svg"
   xmlns="http://www.w3.org/2000/svg"
   xmlns:xlink="http://www.w3.org/1999/xlink"
   version="1.2"
   width="96"
   height="96"
   id="svg2408">
  <defs
     id="defs2410">
    <linearGradient
       id="linearGradient3210">
      <stop
         id="stop3212"
         style="stop-color:#ffffff;stop-opacity:0.39024389"
         offset="0" />
      <stop
         id="stop3214"
         style="stop-color:#000000;stop-opacity:0.2682927"
         offset="1" />
    </linearGradient>
    <linearGradient
       id="linearGradient3174">
      <stop
         id="stop3176"
         style="stop-color:#c30000;stop-opacity:1"
         offset="0" />
      <stop
         id="stop3178"
         style="stop-color:#f12300;stop-opacity:1"
         offset="1" />
    </linearGradient>
    <linearGradient
       x1="45.447727"
       y1="92.539597"
       x2="45.447727"
       y2="7.0165396"
       id="ButtonShadow"
       gradientUnits="userSpaceOnUse"
       gradientTransform="scale(1.0058652,0.994169)">
      <stop
         id="stop3750"
         style="stop-color:#000000;stop-opacity:1"
         offset="0" />
      <stop
         id="stop3752"
         style="stop-color:#000000;stop-opacity:0.58823532"
         offset="1" />
    </linearGradient>
    <linearGradient
       id="linearGradient3737">
      <stop
         id="stop3739"
         style="stop-color:#ffffff;stop-opacity:1"
         offset="0" />
      <stop
         id="stop3741"
         style="stop-color:#ffffff;stop-opacity:0"
         offset="1" />
    </linearGradient>
    <linearGradient
       id="linearGradient3700">
      <stop
         id="stop3702"
         style="stop-color:#ebebeb;stop-opacity:1"
         offset="0" />
      <stop
         id="stop3704"
         style="stop-color:#fafafa;stop-opacity:1"
         offset="1" />
    </linearGradient>
    <linearGradient
       x1="48"
       y1="90"
       x2="48"
       y2="5.9877172"
       id="linearGradient3706"
       xlink:href="#linearGradient3700"
       gradientUnits="userSpaceOnUse" />
    <filter
       color-interpolation-filters="sRGB"
       id="filter3174">
      <feGaussianBlur
         id="feGaussianBlur3176"
         stdDeviation="1.71" />
    </filter>
    <linearGradient
       x1="36.357143"
       y1="6"
       x2="36.357143"
       y2="63.893143"
       id="linearGradient3188"
       xlink:href="#linearGradient3737"
       gradientUnits="userSpaceOnUse" />
    <linearGradient
       x1="48"
       y1="84"
       x2="48"
       y2="12"
       id="linearGradient3180"
       xlink:href="#linearGradient3174"
       gradientUnits="userSpaceOnUse" />
    <linearGradient
       x1="12"
       y1="48"
       x2="84"
       y2="48"
       id="linearGradient3216"
       xlink:href="#linearGradient3210"
       gradientUnits="userSpaceOnUse"
       gradientTransform="matrix(0,1,-1,0,96,0)" />
  </defs>
  <g
     id="layer2">
    <rect
       width="86"
       height="85"
       rx="6"
       ry="6"
       x="5"
       y="7"
       id="rect3745"
       style="opacity:0.9;fill:url(#ButtonShadow);fill-opacity:1;fill-rule:nonzero;stroke:none;filter:url(#filter3174)" />
  </g>
  <g
     id="layer1"
     style="display:inline">
    <rect
       width="84"
       height="84"
       rx="6"
       ry="6"
       x="6"
       y="6"
       id="rect2419"
       style="fill:url(#linearGradient3706);fill-opacity:1;fill-rule:nonzero;stroke:none" />
    <path
       d="M 12,6 C 8.676,6 6,8.676 6,12 l 0,2 0,68 0,2 c 0,0.334721 0.04135,0.6507 0.09375,0.96875 0.0487,0.295596 0.09704,0.596915 0.1875,0.875 0.00988,0.03038 0.020892,0.0636 0.03125,0.09375 0.098865,0.287771 0.2348802,0.547452 0.375,0.8125 0.1445918,0.273507 0.3156161,0.535615 0.5,0.78125 0.1843839,0.245635 0.3737765,0.473472 0.59375,0.6875 0.439947,0.428056 0.94291,0.814526 1.5,1.09375 0.278545,0.139612 0.5734731,0.246947 0.875,0.34375 -0.2562018,-0.100222 -0.4867109,-0.236272 -0.71875,-0.375 -0.00741,-0.0044 -0.023866,0.0045 -0.03125,0 -0.031933,-0.0193 -0.062293,-0.04251 -0.09375,-0.0625 -0.120395,-0.0767 -0.2310226,-0.163513 -0.34375,-0.25 -0.1061728,-0.0808 -0.2132809,-0.161112 -0.3125,-0.25 -0.1779299,-0.161433 -0.3474596,-0.345388 -0.5,-0.53125 -0.1075789,-0.130255 -0.2183939,-0.265285 -0.3125,-0.40625 -0.025089,-0.03838 -0.038446,-0.08587 -0.0625,-0.125 -0.064763,-0.103032 -0.1302275,-0.204517 -0.1875,-0.3125 -0.1010083,-0.194706 -0.2056748,-0.415701 -0.28125,-0.625 -0.00796,-0.02181 -0.023589,-0.04055 -0.03125,-0.0625 C 7.2494249,86.5643 7.2454455,86.469419 7.21875,86.375 7.1884177,86.268382 7.1483606,86.171969 7.125,86.0625 7.0521214,85.720988 7,85.364295 7,85 L 7,83 7,15 7,13 C 7,10.218152 9.2181517,8 12,8 l 2,0 68,0 2,0 c 2.781848,0 5,2.218152 5,5 l 0,2 0,68 0,2 c 0,0.364295 -0.05212,0.720988 -0.125,1.0625 -0.04415,0.206893 -0.08838,0.397658 -0.15625,0.59375 -0.0077,0.02195 -0.0233,0.04069 -0.03125,0.0625 -0.06274,0.173739 -0.138383,0.367449 -0.21875,0.53125 -0.04158,0.0828 -0.07904,0.169954 -0.125,0.25 -0.0546,0.09721 -0.126774,0.18835 -0.1875,0.28125 -0.09411,0.140965 -0.204921,0.275995 -0.3125,0.40625 -0.143174,0.17445 -0.303141,0.346998 -0.46875,0.5 -0.01117,0.0102 -0.01998,0.02115 -0.03125,0.03125 -0.138386,0.125556 -0.285091,0.234436 -0.4375,0.34375 -0.102571,0.07315 -0.204318,0.153364 -0.3125,0.21875 -0.0074,0.0045 -0.02384,-0.0044 -0.03125,0 -0.232039,0.138728 -0.462548,0.274778 -0.71875,0.375 0.301527,-0.0968 0.596455,-0.204138 0.875,-0.34375 0.55709,-0.279224 1.060053,-0.665694 1.5,-1.09375 0.219973,-0.214028 0.409366,-0.441865 0.59375,-0.6875 0.184384,-0.245635 0.355408,-0.507743 0.5,-0.78125 0.14012,-0.265048 0.276135,-0.524729 0.375,-0.8125 0.01041,-0.03078 0.02133,-0.06274 0.03125,-0.09375 0.09046,-0.278085 0.1388,-0.579404 0.1875,-0.875 C 89.95865,84.6507 90,84.334721 90,84 l 0,-2 0,-68 0,-2 C 90,8.676 87.324,6 84,6 L 12,6 z"
       id="rect3728"
       style="fill:url(#linearGradient3188);fill-opacity:1;fill-rule:nonzero;stroke:none" />
    <flowRoot
       transform="matrix(1.0888502,0,0,1.126549,2.592769,68.632277)"
       id="flowRoot2424"
       xml:space="preserve"
       style="font-size:16px;font-style:normal;font-variant:normal;font-weight:normal;font-stretch:normal;text-align:start;line-height:100%;writing-mode:lr-tb;text-anchor:start;fill:#b3b3b3;fill-opacity:1;stroke:none;font-family:Unispace;-inkscape-font-specification:Unispace"><flowRegion
         id="flowRegion2426"><rect
           width="72.225906"
           height="71.958221"
           x="13.763329"
           y="34.506962"
           id="rect2428"
           style="font-size:16px;font-style:normal;font-variant:normal;font-weight:normal;font-stretch:normal;text-align:start;line-height:100%;writing-mode:lr-tb;text-anchor:start;fill:#b3b3b3;font-family:Unispace;-inkscape-font-specification:Unispace" /></flowRegion><flowPara
         id="flowPara2430">0101110</flowPara><flowPara
         id="flowPara2432">1101001</flowPara><flowPara
         id="flowPara2434">0001011</flowPara></flowRoot>    <g
       transform="translate(6,0)"
       id="g2467"
       style="fill:#b3b3b3">
      <path
         d="m 20.782258,24 c -0.929155,1.2e-5 -1.667888,0.351484 -2.177419,1.102362 C 18.200206,25.707929 18.000001,26.41811 18,27.181102 l 0,5.700788 c 0,0.763004 0.200206,1.434412 0.604839,2.015748 C 19.11437,35.636418 19.853103,36 20.782258,36 l 4.395161,0 c 0.944131,0 1.667874,-0.363585 2.17742,-1.102362 C 27.759459,34.316304 27.999988,33.644893 28,32.88189 l 0,-5.700788 c -1.2e-5,-0.762993 -0.240542,-1.473173 -0.645161,-2.07874 C 26.845294,24.351484 26.121551,24.000013 25.177419,24 l -4.395161,0 z m 1.109674,1.007874 2.27927,0 c 0.254761,1.1e-5 0.475669,0.04122 0.685484,0.125984 l -4.537334,8.787402 c -0.149866,-0.326999 -0.241938,-0.676035 -0.241936,-1.03937 l 0,-5.700788 c -2e-6,-0.508659 0.148457,-0.974038 0.403226,-1.385826 0.329695,-0.520768 0.796848,-0.78739 1.41129,-0.787402 z m 3.85185,1.133858 c 0.134869,0.339122 0.201606,0.688158 0.201613,1.03937 l 0,5.700788 c -7e-6,0.496559 -0.148464,0.954666 -0.403225,1.35433 -0.31472,0.520781 -0.756536,0.787404 -1.370968,0.787402 l -2.27927,0 c -0.2248,10e-7 -0.450343,-0.05332 -0.645161,-0.125984 l 4.497011,-8.755906 z"
         id="path2439"
         style="font-size:16px;font-style:normal;font-variant:normal;font-weight:normal;font-stretch:normal;text-align:start;line-height:100%;writing-mode:lr-tb;text-anchor:start;fill:#b3b3b3;fill-opacity:1;stroke:none;font-family:Unispace;-inkscape-font-specification:Unispace" />
      <path
         d="m 40,36 -10,0 0,-0.996979 3.860465,0 0,-9.987915 -1.825459,0 0,-1.015106 4.076237,0 0,11.003021 3.888757,0 L 40,36"
         id="flowRoot2412"
         style="font-size:16px;font-style:normal;font-variant:normal;font-weight:normal;font-stretch:normal;text-align:start;line-height:100%;writing-mode:lr-tb;text-anchor:start;fill:#b3b3b3;fill-opacity:1;stroke:none;font-family:Unispace;-inkscape-font-specification:Unispace" />
      <path
         d="m 44.782258,24 c -0.929155,1.2e-5 -1.667888,0.351484 -2.177419,1.102362 C 42.200206,25.707929 42.000001,26.41811 42,27.181102 l 0,5.700788 c 0,0.763004 0.200206,1.434412 0.604839,2.015748 C 43.11437,35.636418 43.853103,36 44.782258,36 l 4.395161,0 c 0.944131,0 1.667874,-0.363585 2.17742,-1.102362 C 51.759459,34.316304 51.999988,33.644893 52,32.88189 l 0,-5.700788 c -1.2e-5,-0.762993 -0.240542,-1.473173 -0.645161,-2.07874 C 50.845294,24.351484 50.121551,24.000013 49.177419,24 l -4.395161,0 z m 1.109674,1.007874 2.27927,0 c 0.254761,1.1e-5 0.475669,0.04122 0.685484,0.125984 l -4.537334,8.787402 c -0.149866,-0.326999 -0.241938,-0.676035 -0.241936,-1.03937 l 0,-5.700788 c -2e-6,-0.508659 0.148457,-0.974038 0.403226,-1.385826 0.329695,-0.520768 0.796848,-0.78739 1.41129,-0.787402 z m 3.85185,1.133858 c 0.134869,0.339122 0.201606,0.688158 0.201613,1.03937 l 0,5.700788 c -7e-6,0.496559 -0.148464,0.954666 -0.403225,1.35433 -0.31472,0.520781 -0.756536,0.787404 -1.370968,0.787402 l -2.27927,0 c -0.2248,10e-7 -0.450343,-0.05332 -0.645161,-0.125984 l 4.497011,-8.755906 z"
         id="path2447"
         style="font-size:16px;font-style:normal;font-variant:normal;font-weight:normal;font-stretch:normal;text-align:start;line-height:100%;writing-mode:lr-tb;text-anchor:start;fill:#b3b3b3;fill-opacity:1;stroke:none;font-family:Unispace;-inkscape-font-specification:Unispace" />
      <path
         d="m 56.782258,24 c -0.929155,1.2e-5 -1.667888,0.351484 -2.177419,1.102362 C 54.200206,25.707929 54.000001,26.41811 54,27.181102 l 0,5.700788 c 0,0.763004 0.200206,1.434412 0.604839,2.015748 C 55.11437,35.636418 55.853103,36 56.782258,36 l 4.395161,0 c 0.944131,0 1.667874,-0.363585 2.17742,-1.102362 C 63.759459,34.316304 63.999988,33.644893 64,32.88189 l 0,-5.700788 c -1.2e-5,-0.762993 -0.240542,-1.473173 -0.645161,-2.07874 C 62.845294,24.351484 62.121551,24.000013 61.177419,24 l -4.395161,0 z m 1.109674,1.007874 2.27927,0 c 0.254761,1.1e-5 0.475669,0.04122 0.685484,0.125984 l -4.537334,8.787402 c -0.149866,-0.326999 -0.241938,-0.676035 -0.241936,-1.03937 l 0,-5.700788 c -2e-6,-0.508659 0.148457,-0.974038 0.403226,-1.385826 0.329695,-0.520768 0.796848,-0.78739 1.41129,-0.787402 z m 3.85185,1.133858 c 0.134869,0.339122 0.201606,0.688158 0.201613,1.03937 l 0,5.700788 c -7e-6,0.496559 -0.148464,0.954666 -0.403225,1.35433 -0.31472,0.520781 -0.756536,0.787404 -1.370968,0.787402 l -2.27927,0 c -0.2248,10e-7 -0.450343,-0.05332 -0.645161,-0.125984 l 4.497011,-8.755906 z"
         id="path2449"
         style="font-size:16px;font-style:normal;font-variant:normal;font-weight:normal;font-stretch:normal;text-align:start;line-height:100%;writing-mode:lr-tb;text-anchor:start;fill:#b3b3b3;fill-opacity:1;stroke:none;font-family:Unispace;-inkscape-font-specification:Unispace" />
      <path
         d="m 28,54 -10,0 0,-0.996979 3.860465,0 0,-9.987915 -1.825459,0 0,-1.015106 4.076237,0 0,11.003021 3.888757,0 L 28,54"
         id="path2451"
         style="font-size:16px;font-style:normal;font-variant:normal;font-weight:normal;font-stretch:normal;text-align:start;line-height:100%;writing-mode:lr-tb;text-anchor:start;fill:#b3b3b3;fill-opacity:1;stroke:none;font-family:Unispace;-inkscape-font-specification:Unispace" />
      <path
         d="m 40,54 -10,0 0,-0.996979 3.860465,0 0,-9.987915 -1.825459,0 0,-1.015106 4.076237,0 0,11.003021 3.888757,0 L 40,54"
         id="path2453"
         style="font-size:16px;font-style:normal;font-variant:normal;font-weight:normal;font-stretch:normal;text-align:start;line-height:100%;writing-mode:lr-tb;text-anchor:start;fill:#b3b3b3;fill-opacity:1;stroke:none;font-family:Unispace;-inkscape-font-specification:Unispace" />
      <path
         d="m 44.782258,42 c -0.929155,1.2e-5 -1.667888,0.351484 -2.177419,1.102362 C 42.200206,43.707929 42.000001,44.41811 42,45.181102 l 0,5.700788 c 0,0.763004 0.200206,1.434412 0.604839,2.015748 C 43.11437,53.636418 43.853103,54 44.782258,54 l 4.395161,0 c 0.944131,0 1.667874,-0.363585 2.17742,-1.102362 C 51.759459,52.316304 51.999988,51.644893 52,50.88189 l 0,-5.700788 c -1.2e-5,-0.762993 -0.240542,-1.473173 -0.645161,-2.07874 C 50.845294,42.351484 50.121551,42.000013 49.177419,42 l -4.395161,0 z m 1.109674,1.007874 2.27927,0 c 0.254761,1.1e-5 0.475669,0.04122 0.685484,0.125984 l -4.537334,8.787402 c -0.149866,-0.326999 -0.241938,-0.676035 -0.241936,-1.03937 l 0,-5.700788 c -2e-6,-0.508659 0.148457,-0.974038 0.403226,-1.385826 0.329695,-0.520768 0.796848,-0.78739 1.41129,-0.787402 z m 3.85185,1.133858 c 0.134869,0.339122 0.201606,0.688158 0.201613,1.03937 l 0,5.700788 c -7e-6,0.496559 -0.148464,0.954666 -0.403225,1.35433 -0.31472,0.520781 -0.756536,0.787404 -1.370968,0.787402 l -2.27927,0 c -0.2248,10e-7 -0.450343,-0.05332 -0.645161,-0.125984 l 4.497011,-8.755906 z"
         id="path2455"
         style="font-size:16px;font-style:normal;font-variant:normal;font-weight:normal;font-stretch:normal;text-align:start;line-height:100%;writing-mode:lr-tb;text-anchor:start;fill:#b3b3b3;fill-opacity:1;stroke:none;font-family:Unispace;-inkscape-font-specification:Unispace" />
      <path
         d="m 64,54 -10,0 0,-0.996979 3.860465,0 0,-9.987915 -1.825459,0 0,-1.015106 4.076237,0 0,11.003021 3.888757,0 L 64,54"
         id="path2457"
         style="font-size:16px;font-style:normal;font-variant:normal;font-weight:normal;font-stretch:normal;text-align:start;line-height:100%;writing-mode:lr-tb;text-anchor:start;fill:#b3b3b3;fill-opacity:1;stroke:none;font-family:Unispace;-inkscape-font-specification:Unispace" />
      <path
         d="m 28,72 -10,0 0,-0.996979 3.860465,0 0,-9.987915 -1.825459,0 0,-1.015106 4.076237,0 0,11.003021 3.888757,0 L 28,72"
         id="path2459"
         style="font-size:16px;font-style:normal;font-variant:normal;font-weight:normal;font-stretch:normal;text-align:start;line-height:100%;writing-mode:lr-tb;text-anchor:start;fill:#b3b3b3;fill-opacity:1;stroke:none;font-family:Unispace;-inkscape-font-specification:Unispace" />
      <path
         d="m 32.782258,60 c -0.929155,1.2e-5 -1.667888,0.351484 -2.177419,1.102362 C 30.200206,61.707929 30.000001,62.41811 30,63.181102 l 0,5.700788 c 0,0.763004 0.200206,1.434412 0.604839,2.015748 C 31.11437,71.636418 31.853103,72 32.782258,72 l 4.395161,0 c 0.944131,0 1.667874,-0.363585 2.17742,-1.102362 C 39.759459,70.316304 39.999988,69.644893 40,68.88189 l 0,-5.700788 c -1.2e-5,-0.762993 -0.240542,-1.473173 -0.645161,-2.07874 C 38.845294,60.351484 38.121551,60.000013 37.177419,60 l -4.395161,0 z m 1.109674,1.007874 2.27927,0 c 0.254761,1.1e-5 0.475669,0.04122 0.685484,0.125984 l -4.537334,8.787402 c -0.149866,-0.326999 -0.241938,-0.676035 -0.241936,-1.03937 l 0,-5.700788 c -2e-6,-0.508659 0.148457,-0.974038 0.403226,-1.385826 0.329695,-0.520768 0.796848,-0.78739 1.41129,-0.787402 z m 3.85185,1.133858 c 0.134869,0.339122 0.201606,0.688158 0.201613,1.03937 l 0,5.700788 c -7e-6,0.496559 -0.148464,0.954666 -0.403225,1.35433 -0.31472,0.520781 -0.756536,0.787404 -1.370968,0.787402 l -2.27927,0 c -0.2248,10e-7 -0.450343,-0.05332 -0.645161,-0.125984 l 4.497011,-8.755906 z"
         id="path2461"
         style="font-size:16px;font-style:normal;font-variant:normal;font-weight:normal;font-stretch:normal;text-align:start;line-height:100%;writing-mode:lr-tb;text-anchor:start;fill:#b3b3b3;fill-opacity:1;stroke:none;font-family:Unispace;-inkscape-font-specification:Unispace" />
      <path
         d="m 44.782258,60 c -0.929155,1.2e-5 -1.667888,0.351484 -2.177419,1.102362 C 42.200206,61.707929 42.000001,62.41811 42,63.181102 l 0,5.700788 c 0,0.763004 0.200206,1.434412 0.604839,2.015748 C 43.11437,71.636418 43.853103,72 44.782258,72 l 4.395161,0 c 0.944131,0 1.667874,-0.363585 2.17742,-1.102362 C 51.759459,70.316304 51.999988,69.644893 52,68.88189 l 0,-5.700788 c -1.2e-5,-0.762993 -0.240542,-1.473173 -0.645161,-2.07874 C 50.845294,60.351484 50.121551,60.000013 49.177419,60 l -4.395161,0 z m 1.109674,1.007874 2.27927,0 c 0.254761,1.1e-5 0.475669,0.04122 0.685484,0.125984 l -4.537334,8.787402 c -0.149866,-0.326999 -0.241938,-0.676035 -0.241936,-1.03937 l 0,-5.700788 c -2e-6,-0.508659 0.148457,-0.974038 0.403226,-1.385826 0.329695,-0.520768 0.796848,-0.78739 1.41129,-0.787402 z m 3.85185,1.133858 c 0.134869,0.339122 0.201606,0.688158 0.201613,1.03937 l 0,5.700788 c -7e-6,0.496559 -0.148464,0.954666 -0.403225,1.35433 -0.31472,0.520781 -0.756536,0.787404 -1.370968,0.787402 l -2.27927,0 c -0.2248,10e-7 -0.450343,-0.05332 -0.645161,-0.125984 l 4.497011,-8.755906 z"
         id="path2463"
         style="font-size:16px;font-style:normal;font-variant:normal;font-weight:normal;font-stretch:normal;text-align:start;line-height:100%;writing-mode:lr-tb;text-anchor:start;fill:#b3b3b3;fill-opacity:1;stroke:none;font-family:Unispace;-inkscape-font-specification:Unispace" />
      <path
         d="m 64,72 -10,0 0,-0.996979 3.860465,0 0,-9.987915 -1.825459,0 0,-1.015106 4.076237,0 0,11.003021 3.888757,0 L 64,72"
         id="path2465"
         style="font-size:16px;font-style:normal;font-variant:normal;font-weight:normal;font-stretch:normal;text-align:start;line-height:100%;writing-mode:lr-tb;text-anchor:start;fill:#b3b3b3;fill-opacity:1;stroke:none;font-family:Unispace;-inkscape-font-specification:Unispace" />
    </g>
  </g>
  <g
     id="layer3"
     style="display:none">
    <rect
       width="72"
       height="72"
       rx="4"
       ry="4"
       x="12"
       y="12"
       id="rect3172"
       style="fill:url(#linearGradient3180);fill-opacity:1;fill-rule:nonzero;stroke:none" />
    <path
       d="m 84,16 c 0,-2.216 -1.784,-4 -4,-4 l -64,0 c -2.216,0 -4,1.784 -4,4 l 0,64 c 0,2.216 1.784,4 4,4 l 64,0 c 2.216,0 4,-1.784 4,-4 l 0,-64 z m -1,0 0,64 c 0,1.673848 -1.326152,3 -3,3 l -64,0 c -1.673848,0 -3,-1.326152 -3,-3 l 0,-64 c 0,-1.673848 1.326152,-3 3,-3 l 64,0 c 1.673848,0 3,1.326152 3,3 z"
       id="rect3203"
       style="fill:url(#linearGradient3216);fill-opacity:1;fill-rule:nonzero;stroke:none" />
  </g>
</svg>
